<?xml version="1.0" standalone="no"?>
<!DOCTYPE svg PUBLIC "-//W3C//DTD SVG 20010904//EN"
 "http://www.w3.org/TR/2001/REC-SVG-20010904/DTD/svg10.dtd">
<svg version="1.0" xmlns="http://www.w3.org/2000/svg"
 width="421.000000pt" height="421.000000pt" viewBox="0 0 421.000000 421.000000"
 preserveAspectRatio="xMidYMid meet">

<g transform="translate(0.000000,421.000000) scale(0.100000,-0.100000)"
fill="#000000" stroke="none">
<path d="M2163 2560 c-60 -34 -97 -79 -122 -147 -10 -26 -40 -157 -67 -290
-47 -232 -48 -243 -34 -285 20 -58 63 -81 141 -75 115 10 217 85 274 201 69
144 74 326 10 386 -30 28 -96 31 -145 5 -17 -9 -33 -15 -35 -13 -2 2 7 53 21
113 26 121 28 135 17 135 -5 0 -31 -14 -60 -30z m107 -290 c46 -46 17 -246
-49 -337 -32 -44 -70 -60 -102 -42 -19 10 -21 17 -15 63 3 28 19 109 34 181
27 122 30 130 58 142 40 17 51 16 74 -7z"/>
<path d="M3783 2527 c-45 -6 -69 -15 -85 -32 -21 -21 -24 -22 -40 -9 -37 34
-141 14 -213 -42 -88 -67 -165 -242 -165 -375 0 -121 37 -171 128 -171 61 0
105 22 160 81 34 37 42 42 42 25 0 -33 41 -64 84 -64 118 0 236 100 236 199 0
44 -23 39 -45 -9 -22 -50 -45 -70 -80 -73 -52 -4 -52 13 -2 254 25 123 45 224
44 224 -1 1 -30 -3 -64 -8z m-139 -103 c9 -8 16 -17 16 -20 0 -2 -14 -70 -31
-151 -39 -187 -65 -233 -133 -233 -32 0 -46 26 -46 87 0 105 52 245 111 298
43 39 60 43 83 19z"/>
<path d="M548 2495 c-140 -35 -291 -144 -342 -247 -37 -73 -36 -148 0 -177 15
-12 41 -21 61 -21 32 0 33 1 26 28 -28 98 26 235 119 302 82 60 201 86 262 59
35 -16 60 -72 51 -117 -13 -70 -61 -139 -117 -168 -45 -24 -48 -20 -42 59 8
89 -7 121 -68 139 -32 9 -41 9 -52 -3 -20 -20 -140 -610 -132 -644 13 -50 80
-97 119 -82 8 3 31 89 60 228 26 122 49 224 51 226 1 2 23 6 47 9 38 5 50 3
73 -17 72 -63 38 -284 -49 -326 -32 -15 -38 -15 -69 0 -19 8 -37 13 -40 10
-12 -13 -6 -92 9 -106 41 -42 151 -23 222 38 82 70 143 245 123 353 -10 57
-32 87 -79 108 l-40 17 35 40 c46 50 64 94 64 154 0 58 -26 105 -72 129 -44
23 -149 27 -220 9z"/>
<path d="M3134 2455 c-82 -12 -164 -30 -181 -39 -56 -29 -98 -110 -73 -141 18
-21 50 -19 50 4 0 24 35 68 68 85 41 20 105 28 99 12 -3 -7 -69 -131 -146
-276 -78 -145 -141 -264 -141 -265 0 -6 330 47 353 56 36 15 83 70 92 108 14
66 -42 95 -92 45 -24 -24 -24 -26 -7 -40 18 -14 18 -14 1 -28 -20 -16 -114
-32 -125 -22 -3 4 9 35 27 69 18 34 80 148 137 253 57 106 104 195 104 198 0
3 -3 5 -7 5 -5 -1 -76 -12 -159 -24z"/>
<path d="M2670 2411 c-153 -47 -286 -280 -267 -467 7 -67 27 -101 72 -120 139
-58 313 63 364 251 57 213 20 346 -97 344 -26 0 -58 -4 -72 -8z m89 -75 c7 -8
15 -30 18 -50 5 -32 3 -37 -21 -46 -28 -10 -126 -14 -126 -5 0 3 9 23 20 45
31 62 83 88 109 56z m-39 -156 l48 0 -14 -60 c-36 -157 -129 -247 -173 -168
-13 22 -13 39 -4 105 6 43 16 91 22 107 10 25 15 28 42 22 18 -3 53 -6 79 -6z"/>
<path d="M1865 2344 c-16 -8 -43 -27 -58 -42 l-28 -26 -23 28 c-22 28 -24 29
-82 20 l-59 -9 -41 -195 c-43 -206 -52 -240 -53 -202 -1 36 -25 25 -49 -23
-25 -52 -71 -82 -102 -65 -11 6 -20 19 -20 30 0 18 75 397 86 432 4 14 -1 16
-33 11 -73 -10 -113 -24 -125 -43 -12 -18 -13 -18 -31 -2 -29 26 -107 19 -169
-15 -118 -64 -208 -238 -208 -406 0 -117 39 -167 130 -167 58 0 98 20 153 76
38 39 47 45 47 28 0 -11 10 -30 23 -42 64 -60 225 5 280 113 l15 30 11 -43
c13 -48 56 -82 104 -82 15 0 27 1 27 3 0 2 20 102 45 223 41 200 48 221 73
241 29 24 82 39 107 29 8 -3 15 -17 15 -31 0 -42 49 -25 76 26 19 38 11 83
-19 104 -27 19 -54 19 -92 -1z m-626 -152 c7 -14 2 -58 -19 -158 -35 -170 -36
-171 -73 -211 -36 -38 -80 -44 -97 -14 -27 52 -1 203 53 305 44 82 113 121
136 78z"/>
<path d="M4030 2084 c0 -29 -52 -107 -91 -137 -154 -115 -470 -169 -1154 -197
-790 -32 -919 -41 -1165 -86 -74 -13 -184 -38 -245 -55 -170 -48 -355 -143
-385 -198 -8 -15 2 -12 42 14 145 96 460 165 908 199 247 19 411 25 1000 36
399 7 497 12 613 30 233 35 383 93 457 178 44 49 55 88 48 163 -5 50 -28 94
-28 53z"/>
<path d="M1940 1540 c0 -42 3 -50 19 -50 26 0 30 16 22 93 -1 4 -10 7 -21 7
-17 0 -20 -7 -20 -50z m30 20 c0 -5 -4 -10 -10 -10 -5 0 -10 5 -10 10 0 6 5
10 10 10 6 0 10 -4 10 -10z m0 -46 c0 -8 -4 -12 -10 -9 -5 3 -10 10 -10 16 0
5 5 9 10 9 6 0 10 -7 10 -16z"/>
<path d="M2046 1559 c-3 -17 -6 -41 -6 -53 0 -17 2 -18 10 -6 9 13 11 13 19 0
16 -24 23 -4 14 41 -10 52 -28 61 -37 18z m21 -31 c-3 -8 -6 -5 -6 6 -1 11 2
17 5 13 3 -3 4 -12 1 -19z"/>
<path d="M2140 1540 c0 -27 5 -50 10 -50 6 0 10 10 10 23 0 17 2 19 9 7 6 -8
7 -18 5 -22 -3 -4 0 -8 5 -8 6 0 11 21 11 50 0 47 -2 50 -25 50 -23 0 -25 -3
-25 -50z m27 18 c-3 -8 -6 -5 -6 6 -1 11 2 17 5 13 3 -3 4 -12 1 -19z"/>
<path d="M2248 1558 c-5 -48 1 -68 22 -68 23 0 28 15 22 63 -3 27 -9 37 -22
37 -13 0 -19 -9 -22 -32z m32 2 c0 -5 -4 -10 -10 -10 -5 0 -10 5 -10 10 0 6 5
10 10 10 6 0 10 -4 10 -10z m0 -45 c0 -8 -4 -15 -10 -15 -5 0 -10 7 -10 15 0
8 5 15 10 15 6 0 10 -7 10 -15z"/>
<path d="M2350 1540 c0 -45 2 -50 23 -49 12 0 16 3 10 6 -7 2 -13 13 -13 23 0
10 6 21 13 23 10 4 10 6 0 6 -7 1 -13 7 -13 15 0 8 6 17 13 19 6 3 2 6 -10 6
-21 1 -23 -4 -23 -49z"/>
<path d="M2460 1583 c-1 -5 -5 -27 -9 -50 -8 -40 0 -58 13 -30 5 10 7 10 12 0
10 -23 25 -14 19 12 -3 14 -7 36 -10 50 -5 22 -24 36 -25 18z"/>
<path d="M2550 1541 c0 -52 15 -70 23 -28 l4 22 2 -22 c2 -46 20 -22 18 25 -2
40 -5 47 -24 50 -21 3 -23 0 -23 -47z m27 17 c-3 -8 -6 -5 -6 6 -1 11 2 17 5
13 3 -3 4 -12 1 -19z"/>
<path d="M2650 1540 c0 -27 5 -50 10 -50 6 0 10 23 10 50 0 28 -4 50 -10 50
-5 0 -10 -22 -10 -50z"/>
<path d="M2736 1578 c-17 -55 -10 -115 8 -75 5 10 7 10 12 0 13 -28 21 -10 13
30 -4 23 -8 45 -9 50 0 12 -20 8 -24 -5z m11 -50 c-3 -8 -6 -5 -6 6 -1 11 2
17 5 13 3 -3 4 -12 1 -19z"/>
</g>
</svg>
